<?xml version="1.0" encoding="UTF-8" standalone="no"?><!DOCTYPE svg PUBLIC "-//W3C//DTD SVG 1.1//EN" "http://www.w3.org/Graphics/SVG/1.1/DTD/svg11.dtd"><svg width="100%" height="100%" viewBox="0 0 294 294" version="1.1" xmlns="http://www.w3.org/2000/svg" xmlns:xlink="http://www.w3.org/1999/xlink" xml:space="preserve" xmlns:serif="http://www.serif.com/" style="fill-rule:evenodd;clip-rule:evenodd;stroke-linejoin:round;stroke-miterlimit:2;"><path d="M0,146.626c0,-80.979 65.647,-146.626 146.626,-146.626c80.98,0 146.626,65.647 146.626,146.626c0,80.98 -65.646,146.626 -146.626,146.626c-80.979,0 -146.626,-65.646 -146.626,-146.626Zm199.992,6.266c-3.911,3.221 -8.358,6.807 -13.017,10.559c-1.314,1.063 -2.646,2.134 -3.983,3.214l0,-34.928c0,-3.287 -2.121,-6.145 -5.127,-6.909c-3.027,-0.764 -6.12,0.757 -7.521,3.685c-0.074,0.15 -7.201,14.896 -18.123,27.809c-10.385,12.273 -20.023,18.24 -29.475,18.24c-7.25,-0 -14.203,-3.732 -19.079,-10.233c-5.184,-6.912 -7.812,-16.488 -7.812,-28.469c-0,-18.795 4.772,-35.325 14.585,-50.545c10.357,-16.061 24.63,-25.277 39.155,-25.277c13.251,-0 21.481,8.146 21.481,21.258c-0,11.618 -6.562,21.613 -21.284,32.393c-3.043,2.228 -3.806,6.653 -1.709,9.884c2.094,3.231 6.261,4.048 9.301,1.823c18.467,-13.527 27.07,-27.541 27.07,-44.1c-0,-20.885 -14.335,-35.475 -34.859,-35.475c-19.006,-0 -37.3,11.466 -50.189,31.458c-11.391,17.661 -16.929,36.822 -16.929,58.581c0,15.28 3.609,27.841 10.726,37.33c7.431,9.907 18.2,15.589 29.543,15.589c13.461,0 26.354,-7.51 39.421,-22.95c2.719,-3.212 5.213,-6.501 7.447,-9.678l0,21.411c-10.517,8.697 -20.136,17.064 -25.524,23.166c-9.535,10.795 -12.447,23.512 -7.789,34.018c3.458,7.823 10.756,12.685 19.039,12.685c9.321,0 16.322,-4.297 21.415,-13.143c4.197,-7.301 6.237,-17.409 6.237,-30.898l0,-18.844c4.1,-3.341 8.204,-6.653 12.066,-9.767c4.699,-3.786 9.184,-7.4 13.124,-10.641c2.919,-2.407 3.454,-6.871 1.194,-9.977c-2.265,-3.106 -6.468,-3.668 -9.384,-1.269Zm-30.378,50.498c0,10.646 -1.441,18.551 -4.274,23.48c-2.662,4.624 -5.371,6.344 -10,6.344c-3.09,0 -5.685,-1.688 -6.935,-4.52c-2.234,-5.037 -0.198,-11.854 5.438,-18.233c3.424,-3.879 9.147,-9.096 15.771,-14.772l0,7.701Z" style="fill:#dfe0e1;"/></svg>