<?xml version="1.0" encoding="UTF-8" standalone="no"?><!DOCTYPE svg PUBLIC "-//W3C//DTD SVG 1.1//EN" "http://www.w3.org/Graphics/SVG/1.1/DTD/svg11.dtd"><svg width="100%" height="100%" viewBox="0 0 294 294" version="1.1" xmlns="http://www.w3.org/2000/svg" xmlns:xlink="http://www.w3.org/1999/xlink" xml:space="preserve" xmlns:serif="http://www.serif.com/" style="fill-rule:evenodd;clip-rule:evenodd;stroke-linejoin:round;stroke-miterlimit:2;"><clipPath id="_clip1"><rect id="instagram.svg" x="-0" y="0" width="293.252" height="293.252"/></clipPath><g clip-path="url(#_clip1)"><path d="M85.899,1.026c-15.601,0.736 -26.254,3.226 -35.568,6.886c-9.639,3.757 -17.809,8.798 -25.938,16.956c-8.129,8.158 -13.135,16.334 -16.865,25.988c-3.61,9.334 -6.056,19.997 -6.745,35.606c-0.689,15.61 -0.842,20.628 -0.765,60.446c0.076,39.817 0.252,44.808 1.008,60.451c0.745,15.598 3.226,26.249 6.886,35.565c3.762,9.639 8.798,17.806 16.959,25.938c8.161,8.132 16.331,13.126 26.008,16.862c9.326,3.604 19.991,6.062 35.598,6.745c15.607,0.683 20.63,0.842 60.436,0.766c39.806,-0.077 44.818,-0.253 60.457,-0.995c15.639,-0.742 26.235,-3.24 35.554,-6.882c9.639,-3.771 17.812,-8.798 25.938,-16.962c8.126,-8.164 13.129,-16.346 16.856,-26.006c3.613,-9.325 6.068,-19.991 6.745,-35.586c0.684,-15.651 0.845,-20.648 0.769,-60.459c-0.077,-39.812 -0.256,-44.804 -0.997,-60.44c-0.742,-15.636 -3.226,-26.255 -6.883,-35.577c-3.768,-9.639 -8.798,-17.8 -16.956,-25.938c-8.158,-8.138 -16.346,-13.138 -26.003,-16.856c-9.331,-3.61 -19.991,-6.071 -35.597,-6.745c-15.607,-0.675 -20.631,-0.848 -60.451,-0.771c-39.821,0.076 -44.806,0.246 -60.446,1.008m1.713,265.065c-14.296,-0.622 -22.058,-2.997 -27.231,-4.985c-6.851,-2.639 -11.73,-5.83 -16.886,-10.936c-5.155,-5.105 -8.322,-10.002 -10.997,-16.838c-2.009,-5.173 -4.428,-12.927 -5.097,-27.223c-0.727,-15.451 -0.879,-20.09 -0.964,-59.237c-0.085,-39.146 0.064,-43.779 0.742,-59.237c0.61,-14.284 3,-22.055 4.985,-27.225c2.639,-6.859 5.818,-11.73 10.935,-16.883c5.118,-5.152 10,-8.325 16.842,-10.999c5.167,-2.018 12.92,-4.417 27.211,-5.097c15.463,-0.733 20.096,-0.88 59.237,-0.965c39.14,-0.085 43.785,0.062 59.254,0.742c14.284,0.622 22.058,2.988 27.223,4.985c6.853,2.639 11.73,5.81 16.882,10.936c5.153,5.126 8.329,9.991 11.003,16.847c2.02,5.152 4.419,12.903 5.094,27.202c0.736,15.463 0.903,20.099 0.973,59.237c0.071,39.137 -0.067,43.785 -0.744,59.237c-0.625,14.296 -2.995,22.061 -4.986,27.24c-2.639,6.847 -5.821,11.73 -10.941,16.88c-5.12,5.149 -9.997,8.322 -16.841,10.997c-5.162,2.014 -12.924,4.419 -27.203,5.099c-15.463,0.727 -20.096,0.88 -59.251,0.965c-39.155,0.085 -43.774,-0.073 -59.237,-0.742m119.529,-197.831c0.017,9.642 7.954,17.566 17.596,17.566c9.652,0 17.595,-7.943 17.595,-17.595c-0,-9.652 -7.943,-17.595 -17.595,-17.595c-0.012,-0 -0.024,-0 -0.036,-0c-9.65,0.019 -17.576,7.974 -17.56,17.624m-135.805,78.513c0.083,41.583 33.853,75.216 75.428,75.137c41.574,-0.079 75.231,-33.847 75.152,-75.431c-0.08,-41.583 -33.859,-75.225 -75.44,-75.142c-41.58,0.082 -75.219,33.858 -75.14,75.436m26.411,-0.053c-0,-0.032 -0,-0.065 -0,-0.097c-0,-26.813 22.063,-48.876 48.876,-48.876c26.813,-0 48.876,22.063 48.876,48.876c0,26.776 -22.003,48.823 -48.779,48.876c-0.034,0.001 -0.069,0.001 -0.103,0.001c-26.775,-0 -48.821,-22.005 -48.87,-48.78" style="fill:#dfe0e1;fill-rule:nonzero;"/></g></svg>