<?xml version="1.0" encoding="UTF-8" standalone="no"?>
<!DOCTYPE svg PUBLIC "-//W3C//DTD SVG 1.1//EN" "http://www.w3.org/Graphics/SVG/1.1/DTD/svg11.dtd">
<svg width="100%" height="100%" viewBox="0 0 597 113" version="1.1" xmlns="http://www.w3.org/2000/svg" xmlns:xlink="http://www.w3.org/1999/xlink" xml:space="preserve" xmlns:serif="http://www.serif.com/" style="fill-rule:evenodd;clip-rule:evenodd;stroke-linejoin:round;stroke-miterlimit:2;">
    <g transform="matrix(0.786664,0,0,0.786664,-547.497,-1294.39)">
        <path d="M854.523,1755.82L854.523,1648.42L867.273,1648.42L867.273,1680.07L866.673,1690.57L867.273,1690.57C869.273,1686.77 872.523,1683.57 877.023,1680.97C881.623,1678.27 886.673,1676.92 892.173,1676.92C898.673,1676.92 904.023,1678.22 908.223,1680.82C912.423,1683.42 915.573,1686.97 917.673,1691.47C919.773,1695.87 920.823,1700.97 920.823,1706.77L920.823,1755.82L908.073,1755.82L908.073,1708.72C908.073,1703.82 907.173,1699.92 905.373,1697.02C903.673,1694.02 901.373,1691.87 898.473,1690.57C895.673,1689.17 892.573,1688.47 889.173,1688.47C884.973,1688.47 881.223,1689.67 877.923,1692.07C874.623,1694.47 872.023,1697.57 870.123,1701.37C868.223,1705.17 867.273,1709.12 867.273,1713.22L867.273,1755.82L854.523,1755.82Z" style="fill:white;fill-rule:nonzero;"/>
    </g>
    <g transform="matrix(0.786664,0,0,0.786664,-547.497,-1294.39)">
        <path d="M724.323,1758.22C714.923,1758.22 707.823,1755.47 703.023,1749.97C698.323,1744.47 695.973,1736.97 695.973,1727.47L695.973,1679.32L708.723,1679.32L708.723,1725.52C708.723,1733.12 710.473,1738.57 713.973,1741.87C717.473,1745.07 721.823,1746.67 727.023,1746.67C731.523,1746.67 735.423,1745.52 738.723,1743.22C742.023,1740.82 744.573,1737.77 746.373,1734.07C748.173,1730.37 749.073,1726.52 749.073,1722.52L749.073,1679.32L761.823,1679.32L761.823,1755.82L749.673,1755.82L749.673,1744.72L749.073,1744.72C747.773,1747.12 745.823,1749.37 743.223,1751.47C740.723,1753.47 737.823,1755.07 734.523,1756.27C731.323,1757.57 727.923,1758.22 724.323,1758.22Z" style="fill:white;fill-rule:nonzero;"/>
    </g>
    <g transform="matrix(0.786664,0,0,0.786664,-547.497,-1294.39)">
        <path d="M810.723,1758.22C803.223,1758.22 796.523,1756.47 790.623,1752.97C784.823,1749.37 780.273,1744.52 776.973,1738.42C773.673,1732.22 772.023,1725.27 772.023,1717.57C772.023,1709.77 773.673,1702.82 776.973,1696.72C780.273,1690.62 784.823,1685.82 790.623,1682.32C796.523,1678.72 803.223,1676.92 810.723,1676.92C819.323,1676.92 826.373,1678.92 831.873,1682.92C837.473,1686.82 841.423,1691.87 843.723,1698.07L832.173,1702.87C830.273,1698.17 827.423,1694.62 823.623,1692.22C819.923,1689.72 815.423,1688.47 810.123,1688.47C805.623,1688.47 801.423,1689.67 797.523,1692.07C793.723,1694.47 790.623,1697.87 788.223,1702.27C785.823,1706.57 784.623,1711.67 784.623,1717.57C784.623,1723.37 785.823,1728.47 788.223,1732.87C790.623,1737.27 793.723,1740.67 797.523,1743.07C801.423,1745.47 805.623,1746.67 810.123,1746.67C815.523,1746.67 820.173,1745.42 824.073,1742.92C827.973,1740.42 830.873,1736.87 832.773,1732.27L844.173,1737.07C841.673,1742.97 837.623,1747.97 832.023,1752.07C826.423,1756.17 819.323,1758.22 810.723,1758.22Z" style="fill:white;fill-rule:nonzero;"/>
    </g>
    <g transform="matrix(0.786664,0,0,0.786664,-547.497,-1294.39)">
        <path d="M948.123,1755.82L923.523,1679.32L936.723,1679.32L954.873,1739.77L955.023,1739.77L974.373,1679.32L987.423,1679.32L1006.77,1739.62L1006.92,1739.62L1025.07,1679.32L1037.97,1679.32L1013.22,1755.82L1000.32,1755.82L980.523,1694.77L960.873,1755.82L948.123,1755.82Z" style="fill:white;fill-rule:nonzero;"/>
    </g>
    <g transform="matrix(0.786664,0,0,0.786664,-547.497,-1294.39)">
        <path d="M1072.02,1784.32C1071.72,1785.02 1071.37,1785.77 1070.97,1786.57C1070.57,1787.47 1070.32,1788.02 1070.22,1788.22L1057.02,1788.22C1057.62,1786.92 1058.27,1785.47 1058.97,1783.87C1059.67,1782.37 1060.52,1780.52 1061.52,1778.32C1062.12,1777.02 1062.67,1775.82 1063.17,1774.72C1063.67,1773.62 1064.22,1772.37 1064.82,1770.97C1065.52,1769.67 1066.32,1768.02 1067.22,1766.02L1077.72,1743.22L1080.57,1736.17L1103.67,1679.32L1117.47,1679.32L1077.87,1770.67C1077.47,1771.57 1076.82,1772.97 1075.92,1774.87C1075.12,1776.87 1074.32,1778.77 1073.52,1780.57C1072.82,1782.47 1072.32,1783.72 1072.02,1784.32ZM1074.87,1752.67L1042.47,1679.32L1056.27,1679.32L1080.27,1736.17L1081.47,1736.17L1074.87,1752.67Z" style="fill:white;fill-rule:nonzero;"/>
    </g>
    <g transform="matrix(0.786664,0,0,0.786664,-547.497,-1294.39)">
        <path d="M1155.27,1758.22C1147.77,1758.22 1141.07,1756.47 1135.17,1752.97C1129.37,1749.37 1124.82,1744.52 1121.52,1738.42C1118.22,1732.22 1116.57,1725.27 1116.57,1717.57C1116.57,1709.77 1118.22,1702.82 1121.52,1696.72C1124.82,1690.62 1129.37,1685.82 1135.17,1682.32C1141.07,1678.72 1147.77,1676.92 1155.27,1676.92C1163.87,1676.92 1170.92,1678.92 1176.42,1682.92C1182.02,1686.82 1185.97,1691.87 1188.27,1698.07L1176.72,1702.87C1174.82,1698.17 1171.97,1694.62 1168.17,1692.22C1164.47,1689.72 1159.97,1688.47 1154.67,1688.47C1150.17,1688.47 1145.97,1689.67 1142.07,1692.07C1138.27,1694.47 1135.17,1697.87 1132.77,1702.27C1130.37,1706.57 1129.17,1711.67 1129.17,1717.57C1129.17,1723.37 1130.37,1728.47 1132.77,1732.87C1135.17,1737.27 1138.27,1740.67 1142.07,1743.07C1145.97,1745.47 1150.17,1746.67 1154.67,1746.67C1160.07,1746.67 1164.72,1745.42 1168.62,1742.92C1172.52,1740.42 1175.42,1736.87 1177.32,1732.27L1188.72,1737.07C1186.22,1742.97 1182.17,1747.97 1176.57,1752.07C1170.97,1756.17 1163.87,1758.22 1155.27,1758.22ZM1149.42,1663.72L1157.22,1645.42L1171.17,1645.42L1160.52,1663.72L1149.42,1663.72Z" style="fill:white;fill-rule:nonzero;"/>
    </g>
    <g transform="matrix(0.786664,0,0,0.786664,-48.3122,-1294.39)">
        <path d="M704.523,1690.87L691.023,1690.87L691.023,1679.32L704.523,1679.32L704.523,1657.72L717.273,1657.72L717.273,1679.32L736.023,1679.32L736.023,1690.87L717.273,1690.87L717.273,1732.57C717.273,1736.87 718.123,1740.07 719.823,1742.17C721.623,1744.17 724.273,1745.17 727.773,1745.17C729.373,1745.17 730.873,1744.97 732.273,1744.57C733.673,1744.07 735.023,1743.42 736.323,1742.62L736.323,1755.07C734.723,1755.67 733.073,1756.12 731.373,1756.42C729.673,1756.82 727.823,1757.02 725.823,1757.02C719.423,1757.02 714.273,1755.12 710.373,1751.32C706.473,1747.42 704.523,1742.22 704.523,1735.72L704.523,1690.87Z" style="fill:white;"/>
    </g>
    <g transform="matrix(0.786664,0,0,0.786664,-48.3122,-1294.39)">
        <path d="M780.123,1758.22C772.423,1758.22 765.623,1756.42 759.723,1752.82C753.823,1749.22 749.173,1744.37 745.773,1738.27C742.473,1732.07 740.823,1725.17 740.823,1717.57C740.823,1709.97 742.473,1703.12 745.773,1697.02C749.173,1690.82 753.823,1685.92 759.723,1682.32C765.623,1678.72 772.423,1676.92 780.123,1676.92C787.823,1676.92 794.623,1678.77 800.523,1682.47C806.423,1686.07 811.023,1690.97 814.323,1697.17C817.723,1703.27 819.423,1710.07 819.423,1717.57C819.423,1725.17 817.723,1732.07 814.323,1738.27C811.023,1744.37 806.423,1749.22 800.523,1752.82C794.623,1756.42 787.823,1758.22 780.123,1758.22ZM780.123,1746.67C784.723,1746.67 789.023,1745.52 793.023,1743.22C797.123,1740.92 800.423,1737.62 802.923,1733.32C805.423,1728.92 806.673,1723.67 806.673,1717.57C806.673,1711.47 805.423,1706.27 802.923,1701.97C800.423,1697.57 797.123,1694.22 793.023,1691.92C789.023,1689.62 784.723,1688.47 780.123,1688.47C775.523,1688.47 771.173,1689.62 767.073,1691.92C762.973,1694.22 759.673,1697.57 757.173,1701.97C754.673,1706.27 753.423,1711.47 753.423,1717.57C753.423,1723.67 754.673,1728.92 757.173,1733.32C759.673,1737.62 762.973,1740.92 767.073,1743.22C771.173,1745.52 775.523,1746.67 780.123,1746.67Z" style="fill:white;fill-rule:nonzero;"/>
    </g>
    <g id="Dot" transform="matrix(0.399606,0,0,0.399606,-287.158,-393.815)">
        <circle cx="1830.24" cy="1176.7" r="24.9" style="fill:white;"/>
    </g>
    <g transform="matrix(-1,-1.22465e-16,1.03e-16,-0.841057,1153.96,441.137)">
        <path d="M668.132,428.15L668.132,397.631L696.402,397.631L696.402,408.434L678.162,408.434L678.162,428.15L668.132,428.15Z" style="fill:rgb(68,203,5);"/>
    </g>
    <g transform="matrix(-1,-1.22465e-16,8.48485e-17,-0.692841,1080.77,377.034)">
        <path d="M668.132,427.221L668.132,403.287L649.104,403.287L649.104,390.173L678.162,390.173L678.162,427.221L668.132,427.221Z" style="fill:rgb(68,203,5);"/>
    </g>
    <g transform="matrix(1,2.44929e-16,-2.05999e-16,0.841057,-265.529,-288.331)">
        <path d="M668.132,428.15L668.132,397.631L696.402,397.631L696.402,408.434L678.162,408.434L678.162,428.15L668.132,428.15Z" style="fill:rgb(68,203,5);"/>
    </g>
    <g transform="matrix(1,2.44929e-16,-1.69697e-16,0.692841,-192.331,-224.229)">
        <path d="M668.132,427.221L668.132,403.287L649.104,403.287L649.104,390.173L678.162,390.173L678.162,427.221L668.132,427.221Z" style="fill:rgb(68,203,5);"/>
    </g>
</svg>
