<?xml version="1.0" encoding="UTF-8" standalone="no"?><!DOCTYPE svg PUBLIC "-//W3C//DTD SVG 1.1//EN" "http://www.w3.org/Graphics/SVG/1.1/DTD/svg11.dtd"><svg width="100%" height="100%" viewBox="0 0 294 295" version="1.1" xmlns="http://www.w3.org/2000/svg" xmlns:xlink="http://www.w3.org/1999/xlink" xml:space="preserve" xmlns:serif="http://www.serif.com/" style="fill-rule:evenodd;clip-rule:evenodd;stroke-linejoin:round;stroke-miterlimit:2;"><clipPath id="_clip1"><rect id="whatsapp.svg" x="-0" y="0" width="293.252" height="294.881"/></clipPath><g clip-path="url(#_clip1)"><path d="M250.524,42.819c-27.564,-27.598 -64.223,-42.805 -103.282,-42.819c-80.486,0 -145.989,65.496 -146.017,146.003c-0.014,25.736 6.714,50.856 19.492,72.994l-20.717,75.669l77.405,-20.303c21.326,11.636 45.34,17.762 69.774,17.769l0.063,0c80.472,0 145.982,-65.504 146.01,-146.01c0.014,-39.017 -15.158,-75.697 -42.728,-103.296l-0,-0.007Zm-103.282,224.655l-0.049,-0c-21.774,-0.007 -43.134,-5.861 -61.771,-16.915l-4.432,-2.632l-45.935,12.048l12.259,-44.787l-2.884,-4.592c-12.148,-19.323 -18.568,-41.658 -18.554,-64.586c0.028,-66.91 54.47,-121.352 121.416,-121.352c32.415,0.014 62.884,12.651 85.799,35.594c22.915,22.936 35.524,53.434 35.51,85.856c-0.028,66.918 -54.469,121.359 -121.359,121.359l-0,0.007Zm66.567,-90.89c-3.647,-1.827 -21.584,-10.649 -24.931,-11.867c-3.346,-1.218 -5.775,-1.827 -8.205,1.827c-2.429,3.655 -9.424,11.875 -11.552,14.304c-2.129,2.436 -4.257,2.738 -7.905,0.91c-3.647,-1.827 -15.402,-5.678 -29.341,-18.105c-10.845,-9.676 -18.169,-21.62 -20.297,-25.275c-2.128,-3.654 -0.224,-5.628 1.596,-7.442c1.638,-1.638 3.648,-4.263 5.475,-6.392c1.828,-2.128 2.43,-3.654 3.648,-6.084c1.218,-2.436 0.609,-4.564 -0.301,-6.392c-0.911,-1.827 -8.205,-19.786 -11.251,-27.088c-2.962,-7.113 -5.972,-6.147 -8.205,-6.266c-2.129,-0.105 -4.558,-0.126 -6.994,-0.126c-2.437,0 -6.386,0.911 -9.732,4.565c-3.347,3.655 -12.771,12.483 -12.771,30.434c0,17.951 13.072,35.308 14.899,37.744c1.827,2.437 25.729,39.284 62.324,55.092c8.704,3.76 15.501,6.007 20.801,7.688c8.738,2.779 16.691,2.387 22.978,1.449c7.009,-1.05 21.585,-8.829 24.623,-17.349c3.039,-8.521 3.039,-15.83 2.129,-17.349c-0.91,-1.52 -3.346,-2.437 -6.994,-4.264l0.006,-0.014Z" style="fill:#dfe0e1;"/></g></svg>